<svg width="37" height="39" viewBox="0 0 37 39" fill="none" xmlns="http://www.w3.org/2000/svg">
<path d="M9.66245 3.26086L9.66221 3.26099C4.3847 6.14459 1.1 11.4971 1.1 17.3125V23.875C1.1 25.1369 1.43679 26.1421 1.987 26.9228C2.53145 27.6953 3.2469 28.1947 3.92769 28.5167C4.60615 28.8376 5.27301 28.9935 5.76218 29.0707C6.00899 29.1096 6.21649 29.1293 6.3656 29.1394C6.4403 29.1445 6.50078 29.1471 6.54469 29.1485C6.56667 29.1492 6.58453 29.1496 6.598 29.1498L6.61489 29.15L6.62081 29.15L6.62312 29.15L6.62411 29.15C6.62457 29.15 6.625 29.15 6.625 28.25V29.15H8.9375C10.6695 29.15 12.15 27.8194 12.15 26.0625V19.5C12.15 17.7431 10.6695 16.4125 8.9375 16.4125H7.56796C7.87526 13.2014 9.81415 10.2802 12.8376 8.62609C16.146 6.8246 20.2292 6.82464 23.5376 8.6262C26.5609 10.2803 28.4997 13.2015 28.807 16.4125H27.4375C25.7055 16.4125 24.225 17.7431 24.225 19.5V26.0625C24.225 27.8496 25.8645 29.15 27.4375 29.15H28.7939C28.7103 29.75 28.5436 30.1193 28.3655 30.3672C28.1063 30.7277 27.7384 30.9551 27.1725 31.2207L27.1701 31.2218C26.6821 31.4526 26.1612 31.5814 25.7494 31.6511C25.5465 31.6854 25.3771 31.7043 25.2612 31.7144C25.2035 31.7194 25.1594 31.7223 25.1317 31.7238L25.1074 31.725H15.875C14.152 31.725 12.6625 33.0641 12.6625 34.8125C12.6625 36.5609 14.152 37.9 15.875 37.9H25.125L25.1281 37.9L25.1544 37.9C25.1762 37.8999 25.2062 37.8996 25.244 37.8988C25.3195 37.8972 25.4262 37.8935 25.5599 37.8856C25.8269 37.8698 26.2031 37.8368 26.6541 37.7679C27.5525 37.6309 28.7681 37.3488 30.0149 36.7637L30.0186 36.762C32.5567 35.5568 35.275 32.6681 35.275 28.25V17.3125C35.275 11.4971 31.9903 6.14459 26.7128 3.26099L26.7126 3.26086C24.1215 1.84616 21.1817 1.1 18.1875 1.1C15.1933 1.1 12.2535 1.84616 9.66245 3.26086Z" fill="#4296FF" stroke="#152C70" stroke-width="1.8"/>
</svg>
