<svg width="1418" height="584" viewBox="0 0 1418 584" fill="none" xmlns="http://www.w3.org/2000/svg">
<path d="M-25 -5H1188L862.976 565H-25V-5Z" fill="#00B6EF"/>
<path d="M345.819 427.468C211.476 392.386 44.6808 405.704 -21.9239 416.748C-24.0496 468.721 -27.0255 573.446 -21.9239 576.565C-16.8223 579.683 783.71 577.864 1183.34 576.565V525.891C1098.31 494.707 1017.53 468.396 768.83 482.039C578.862 492.46 513.748 471.32 345.819 427.468Z" fill="white" fill-opacity="0.09"/>
<path d="M474.747 497.41C337.346 474.329 172.082 489.147 106.626 499.441C109.373 539.228 116.214 619.364 121.599 621.605C126.984 623.847 925.983 600.2 1324.81 588.096L1320.06 549.36C1232.26 527.887 1149.15 510.021 902.151 527.364C713.482 540.612 646.499 526.262 474.747 497.41Z" fill="white" fill-opacity="0.09"/>
<path d="M463.3 188.849C209.354 183.208 157.716 253.989 75.5118 237.642C71.8083 159.501 25.7456 5.78962 31.9591 1.08084C38.1727 -3.62797 922.933 5.362 1414.8 5.76078L1415.86 81.9562C1311.86 129.177 1394.82 141.551 1017.2 139.201C750.423 137.541 747.553 195.162 463.3 188.849Z" fill="white" fill-opacity="0.09"/>
<path d="M288.969 158.233C35.0233 152.593 -16.6146 223.374 -98.8186 207.026C-102.522 128.885 -148.585 -24.8261 -142.371 -29.5349C-136.158 -34.2437 748.602 -25.2537 1240.47 -24.8549L1241.53 51.3405C1137.53 98.5608 1220.49 110.935 842.869 108.585C576.092 106.925 573.223 164.546 288.969 158.233Z" fill="white" fill-opacity="0.09"/>
<g style="mix-blend-mode:luminosity">
<path d="M365.981 426.576C240.178 391.335 83.9865 404.713 21.616 415.808C19.6255 468.018 16.8387 573.22 21.616 576.353C26.3934 579.485 776.033 577.658 1150.26 576.353V525.448C1070.63 494.123 994.994 467.691 762.1 481.396C584.208 491.865 523.234 470.628 365.981 426.576Z" fill="white" fill-opacity="0.07"/>
<path d="M486.712 496.838C358.046 473.651 203.289 488.536 141.993 498.877C144.566 538.846 150.972 619.347 156.015 621.599C161.058 623.851 909.262 600.096 1282.73 587.937L1278.29 549.025C1196.07 527.454 1118.25 509.506 886.945 526.928C710.27 540.236 647.545 525.821 486.712 496.838Z" fill="white" fill-opacity="0.07"/>
<path d="M475.993 186.869C238.191 181.203 189.836 252.307 112.858 235.885C109.389 157.388 66.255 2.97563 72.0736 -1.75464C77.8921 -6.48491 906.406 2.54606 1367 2.94666L1367.99 79.4895C1270.61 126.925 1348.3 139.356 994.679 136.995C744.862 135.327 742.176 193.211 475.993 186.869Z" fill="white" fill-opacity="0.07"/>
<path d="M312.745 156.114C74.9428 150.448 26.5877 221.552 -50.3903 205.129C-53.8584 126.632 -96.9928 -27.7797 -91.1743 -32.51C-85.3558 -37.2403 743.158 -28.2093 1203.75 -27.8087L1204.75 48.7341C1107.36 96.1698 1185.05 108.601 831.431 106.24C581.615 104.572 578.928 162.456 312.745 156.114Z" fill="white" fill-opacity="0.07"/>
</g>
</svg>
