<svg width="1749" height="893" viewBox="0 0 1749 893" fill="none" xmlns="http://www.w3.org/2000/svg">
<path d="M310.5 175.714L1749 175.714V826.773H310.5V175.714Z" fill="#FAFAFF"/>
<path d="M254 176.214H1326.76L1064.03 826.273H254V176.214Z" fill="#00B6EF"/>
<path d="M254 176.214H1326.76L1064.03 826.273H254V176.214Z" stroke="black"/>
<path d="M254 176.214H1326.76L1064.03 826.273H254V176.214Z" stroke="black" stroke-opacity="0.2"/>
<path d="M359.611 629.193C260.778 581.862 138.072 599.831 89.0724 614.731C87.5086 684.851 85.3193 826.143 89.0724 830.351C92.8256 834.558 681.755 832.104 975.75 830.351V761.983C913.198 719.911 853.773 684.413 670.808 702.82C531.054 716.879 483.151 688.357 359.611 629.193Z" fill="white" fill-opacity="0.04"/>
<path d="M454.459 723.558C353.377 692.417 231.797 712.409 183.643 726.297C185.664 779.977 190.696 888.094 194.658 891.119C198.62 894.143 786.421 862.238 1079.83 845.908L1076.33 793.648C1011.74 764.677 950.602 740.572 768.888 763.971C630.09 781.844 580.812 762.484 454.459 723.558Z" fill="white" fill-opacity="0.04"/>
<path d="M446.038 307.255C259.217 299.646 221.228 395.141 160.753 373.086C158.029 267.66 124.142 60.2773 128.713 53.9243C133.284 47.5713 784.177 59.7004 1146.03 60.2384L1146.81 163.039C1070.3 226.747 1131.33 243.443 853.526 240.272C657.266 238.032 655.155 315.773 446.038 307.255Z" fill="white" fill-opacity="0.04"/>
<path d="M317.788 265.949C130.967 258.34 92.9782 353.835 32.503 331.78C29.7785 226.354 -4.10861 18.9715 0.462518 12.6185C5.03364 6.2655 655.927 18.3945 1017.78 18.9326L1018.56 121.733C942.053 185.442 1003.08 202.137 725.276 198.966C529.016 196.726 526.905 274.467 317.788 265.949Z" fill="white" fill-opacity="0.04"/>
<path d="M366.361 623.948C267.529 576.617 144.822 594.586 95.8228 609.486C94.259 679.606 92.0697 820.898 95.8228 825.106C99.5759 829.313 688.505 826.859 982.501 825.106V756.738C919.948 714.666 860.524 679.168 677.559 697.574C537.804 711.634 489.902 683.112 366.361 623.948Z" fill="white" fill-opacity="0.04"/>
<path d="M461.21 718.313C360.127 687.172 238.547 707.164 190.393 721.052C192.414 774.732 197.447 882.849 201.408 885.873C205.37 888.898 793.171 856.993 1086.58 840.663L1083.08 788.402C1018.49 759.432 957.352 735.326 775.638 758.726C636.84 776.599 587.562 757.239 461.21 718.313Z" fill="white" fill-opacity="0.04"/>
<path d="M452.788 302.01C265.967 294.4 227.978 389.896 167.503 367.841C164.779 262.415 130.892 55.0322 135.463 48.6792C140.034 42.3262 790.927 54.4552 1152.78 54.9933L1153.56 157.794C1077.05 221.502 1138.08 238.198 860.276 235.027C664.016 232.787 661.906 310.528 452.788 302.01Z" fill="white" fill-opacity="0.04"/>
<path d="M324.538 260.704C137.717 253.095 99.7286 348.59 39.2534 326.535C36.5288 221.109 2.64176 13.7263 7.21288 7.37331C11.784 1.02032 662.677 13.1493 1024.53 13.6874L1025.31 116.488C948.803 180.196 1009.83 196.892 732.027 193.721C535.766 191.481 533.656 269.222 324.538 260.704Z" fill="white" fill-opacity="0.04"/>
</svg>
