<svg width="37" height="35" viewBox="0 0 37 35" fill="none" xmlns="http://www.w3.org/2000/svg">
<path d="M24.8794 2.11149C21.1414 -0.703831 15.8586 -0.703831 12.1205 2.11149L3.89832 8.3039C1.43595 10.1584 0 12.9821 0 15.9699V25.2225C0 30.6224 4.60153 35 10.2778 35H26.7222C32.3984 35 37 30.6224 37 25.2225V15.9699C37 12.9821 35.564 10.1584 33.1016 8.30388L24.8794 2.11149Z" fill="#4296FF"/>
<path d="M18.5 21.3113C13.959 21.3113 10.2778 24.8134 10.2778 29.1333C10.2778 30.2133 11.1981 31.0888 12.3333 31.0888H24.6667C25.802 31.0888 26.7222 30.2133 26.7222 29.1333C26.7222 24.8134 23.0409 21.3113 18.5 21.3113Z" fill="#152C70"/>
</svg>
