<svg width="1259" height="840" viewBox="0 0 1259 840" fill="none" xmlns="http://www.w3.org/2000/svg">
<path d="M77.5073 125.091H1259L969.534 778H77.5073V125.091Z" fill="#00B6EF"/>
<path d="M77.5073 125.091H1259L969.534 778H77.5073V125.091Z" stroke="black"/>
<path d="M77.5073 125.091H1259L969.534 778H77.5073V125.091Z" stroke="black" stroke-opacity="0.2"/>
<path d="M269.405 590.532C183.842 545.731 77.6102 562.739 35.1896 576.843C33.8357 643.214 31.9403 776.952 35.1896 780.934C38.4388 784.916 548.298 782.593 802.822 780.934V716.222C748.668 676.399 697.221 642.799 538.821 660.221C417.83 673.529 376.359 646.532 269.405 590.532Z" fill="white" fill-opacity="0.04"/>
<path d="M351.511 679.656C263.978 650.187 158.695 669.105 116.996 682.248C118.746 733.046 123.104 835.357 126.535 838.22C129.965 841.082 638.975 810.89 893.052 795.437L890.027 745.982C834.091 718.567 781.149 695.756 623.793 717.899C503.6 734.812 460.927 716.492 351.511 679.656Z" fill="white" fill-opacity="0.04"/>
<path d="M349.176 284.019C202.925 276.971 173.186 365.419 125.844 344.991C123.711 247.346 97.1829 55.2668 100.761 49.3826C104.34 43.4985 613.884 54.7324 897.155 55.2307L897.766 150.445C837.875 209.452 885.652 224.916 668.174 221.979C514.534 219.904 512.881 291.908 349.176 284.019Z" fill="white" fill-opacity="0.04"/>
<path d="M248.776 245.761C102.526 238.713 72.7868 327.161 25.4445 306.733C23.3116 209.088 -3.2165 17.009 0.361957 11.1249C3.94041 5.24071 513.485 16.4747 796.756 16.973L797.366 112.187C737.475 171.194 785.253 186.658 567.774 183.721C414.134 181.646 412.482 253.65 248.776 245.761Z" fill="white" fill-opacity="0.04"/>
<path d="M274.749 585.793C189.185 540.992 82.9534 558 40.5328 572.104C39.179 638.475 37.2836 772.213 40.5328 776.195C43.7821 780.177 553.641 777.854 808.165 776.195V711.483C754.011 671.66 702.565 638.06 544.164 655.482C423.174 668.79 381.703 641.793 274.749 585.793Z" fill="white" fill-opacity="0.04"/>
<path d="M357.356 674.694C269.823 645.225 164.541 664.144 122.841 677.286C124.591 728.084 128.949 830.396 132.38 833.258C135.81 836.12 644.821 805.928 898.897 790.475L895.872 741.02C839.936 713.605 786.994 690.794 629.638 712.937C509.445 729.85 466.772 711.53 357.356 674.694Z" fill="white" fill-opacity="0.04"/>
<path d="M330.351 238.324C198.209 232.568 171.295 305.776 128.529 288.896C126.65 208.094 102.774 49.1601 106.01 44.289C109.246 39.4179 569.64 48.4483 825.59 48.7129L826.095 127.504C771.952 176.364 815.113 189.135 618.612 186.819C479.791 185.182 478.263 244.767 330.351 238.324Z" fill="white" fill-opacity="0.04"/>
<path d="M228.295 191.949C97.1042 186.462 70.3678 256.651 27.9126 240.478C26.0642 163.016 2.39475 10.655 5.60875 5.98444C8.82274 1.31388 465.906 9.86335 720.017 10.0571L720.501 85.592C666.736 132.446 709.585 144.679 514.496 142.504C376.673 140.968 375.143 198.091 228.295 191.949Z" fill="white" fill-opacity="0.04"/>
</svg>
