<svg width="37" height="35" viewBox="0 0 37 35" fill="none" xmlns="http://www.w3.org/2000/svg">
<path d="M0 17.5C0 22.1413 1.9491 26.5925 5.41852 29.8744C8.88795 33.1563 13.5935 35 18.5 35C23.4065 35 28.1121 33.1563 31.5815 29.8744C35.0509 26.5925 37 22.1413 37 17.5C37 12.8587 35.0509 8.40752 31.5815 5.12563C28.1121 1.84374 23.4065 0 18.5 0C13.5935 0 8.88795 1.84374 5.41852 5.12563C1.9491 8.40752 0 12.8587 0 17.5Z" fill="#2196F3"/>
<path d="M16.738 15.8333H20.2618V25H16.738V15.8333Z" fill="#152C70"/>
<path d="M16.2976 11.25C16.2976 11.8025 16.5296 12.3324 16.9427 12.7231C17.3557 13.1138 17.9159 13.3333 18.5 13.3333C19.0841 13.3333 19.6443 13.1138 20.0573 12.7231C20.4703 12.3324 20.7024 11.8025 20.7024 11.25C20.7024 10.6975 20.4703 10.1676 20.0573 9.77685C19.6443 9.38615 19.0841 9.16666 18.5 9.16666C17.9159 9.16666 17.3557 9.38615 16.9427 9.77685C16.5296 10.1676 16.2976 10.6975 16.2976 11.25Z" fill="#152C70"/>
</svg>
