<?xml version='1.0' encoding='utf-8'?>
<svg xmlns="http://www.w3.org/2000/svg" version="1.1" width="1024px" height="768px" viewBox="27 680 1024 768"> <g id="layer1"> <g style="fill:rgb(42,141,224); fill-opacity:1.0; stroke-linejoin: miter"> <path d="M26.999,679.577C26.887085,679.577,26.779755,679.62146,26.700619,679.7006C26.621483,679.7798,26.577026,679.8871,26.577026,679.999L26.578026,1448.0C26.578026,1448.233,26.76695,1448.422,27.0,1448.422L1051.001,1448.423C1051.1129,1448.423,1051.2202,1448.3784,1051.2993,1448.2993C1051.3784,1448.2202,1051.423,1448.1129,1051.423,1448.001L1051.422,680.0C1051.422,679.76697,1051.233,679.578,1051.0,679.578L26.999,679.577 Z"/> </g> <g style="fill:rgb(0,0,0); fill-opacity:0.39215687; stroke-linejoin: miter"> <path d="M954.3683,1268.2194L950.51685,1268.5447Q944.43164,1268.7631,933.1377,1268.9622Q930.74634,1269.0737,887.53577,1269.5154Q849.32117,1269.8551,790.2711,1270.1171Q776.8728,1270.2041,695.8041,1270.4319Q596.0581,1270.6688,475.19623,1270.5945Q398.29828,1270.5254,335.08624,1270.3379L304.3356,1270.2367Q274.4403,1270.1282,247.96657,1269.99Q52.369434,1268.8907,137.17282,1267.3816Q245.17519,1265.9098,532.44824,1265.8224Q554.2285,1265.8052,645.28174,1265.9117Q680.66187,1265.9657,713.0674,1266.0518Q777.8784,1266.2238,830.791,1266.5243Q857.2473,1266.6747,878.0477,1266.8419Q891.9828,1266.9149,927.7239,1267.3816Q952.35754,1267.7666,954.3684,1268.2194"/> </g> <g style="fill:rgb(255,255,255); fill-opacity:0.99607843; stroke-linejoin: miter"> <path d="M542.0106,1073.7106L542.0106,1073.711L542.0106,1073.7112L542.0106,1073.7106 Z"/> </g> <g style="fill:rgb(124,236,255); fill-opacity:1.0; stroke-linejoin: miter"> <path d="M512.0116,1090.9047C508.84436,1091.179,507.0338,1094.1758,508.2174,1097.1699C508.45038,1097.7504,509.05225,1098.4584,509.78485,1099.0002L510.3745,1099.4314L509.25653,1099.1465C508.19586,1098.8622,508.10797,1098.8673,507.61792,1099.139C507.18872,1099.3981,507.09912,1099.5178,507.0689,1099.8986C507.02435,1100.5485,507.32135,1100.9445,508.0111,1101.2161L508.6073,1101.4619L487.04694,1181.927L465.4829,1262.4053L467.2954,1262.8911L469.1081,1263.3767L482.70697,1212.6245C490.27612,1184.3751,496.35956,1161.8867,496.4267,1161.9047C496.48047,1161.9191,496.9831,1162.2987,497.52148,1162.7594C500.85358,1165.5228,505.25305,1168.1698,509.40808,1169.9019C517.0858,1173.096,525.351,1174.6344,537.8581,1175.1648C540.8869,1175.3004,542.5452,1175.3418,549.56934,1175.497C556.8224,1175.6559,562.83203,1176.0,566.8634,1176.4757C571.5912,1177.0372,572.7943,1177.2737,577.8061,1178.6017C582.1025,1179.7529,582.8703,1180.0022,584.7722,1180.7993C589.7273,1182.8756,593.2615,1185.0457,598.0983,1188.9607C598.20465,1189.0466,599.8459,1183.0829,606.2064,1159.345L614.1714,1129.6184L613.5426,1129.1191C606.85596,1123.7297,600.8401,1120.7793,592.4079,1118.7358C584.7313,1116.8804,579.1526,1116.3784,562.13544,1115.9777C545.8597,1115.6027,539.40857,1114.867,531.20166,1112.4664C523.9945,1110.3625,518.2524,1107.3564,513.08936,1102.9943C512.5376,1102.5293,512.4981,1102.4612,512.82043,1102.5477C514.0691,1102.8823,515.01874,1101.7554,514.30005,1100.7855C514.0756,1100.4955,513.8214,1100.3698,512.93524,1100.1323L511.8476,1099.8413L512.7299,1099.7172C513.9969,1099.5532,514.80334,1099.1216,515.65967,1098.1279C516.7948,1096.7916,516.9817,1094.6975,516.0973,1093.1653C515.2814,1091.7521,513.51404,1090.7754,512.0116,1090.9047 Z"/> </g> <g style="fill:rgb(231,105,199); fill-opacity:1.0; stroke-linejoin: miter"> <path d="M633.12744,1056.6946C629.9602,1056.9684,628.14966,1059.9658,629.3334,1062.9596C629.56635,1063.54,630.16815,1064.2478,630.9008,1064.7897L631.4903,1065.2211L630.3723,1064.9363C629.31177,1064.652,629.22394,1064.6569,628.7337,1064.9287C628.3047,1065.1876,628.21497,1065.3077,628.1849,1065.6881C628.1403,1066.3385,628.43713,1066.7341,629.1271,1067.0055L629.7231,1067.2517L608.16266,1147.7166L586.5988,1228.1948L588.4113,1228.6809L590.224,1229.1664L603.8229,1178.4142C611.3922,1150.165,617.4755,1127.6765,617.5426,1127.6943C617.5963,1127.709,618.09894,1128.0883,618.6374,1128.5492C621.9694,1131.3129,626.3688,1133.9595,630.524,1135.6915C638.2018,1138.8857,646.467,1140.4237,658.97394,1140.9547C662.00287,1141.09,663.6611,1141.1313,670.6852,1141.2867C677.9384,1141.4456,683.9479,1141.7896,687.97925,1142.2653C692.7069,1142.8269,693.9102,1143.063,698.92175,1144.3916C703.21826,1145.5427,703.9862,1145.7919,705.888,1146.589C710.8433,1148.6653,714.3774,1150.8356,719.2141,1154.7505C719.3206,1154.8367,720.9618,1148.8726,727.32227,1125.1346L735.2874,1095.4083L734.65845,1094.9087C727.972,1089.5197,721.95575,1086.5691,713.52374,1084.5258C705.8471,1082.6702,700.2686,1082.1685,683.25146,1081.7672C666.9755,1081.3925,660.5244,1080.6567,652.3173,1078.2563C645.11035,1076.1521,639.36835,1073.1459,634.2052,1068.7836C633.6535,1068.3191,633.6141,1068.2511,633.93634,1068.3372C635.185,1068.6719,636.1345,1067.5448,635.4157,1066.5754C635.1914,1066.2848,634.9373,1066.1592,634.0512,1065.9219L632.9636,1065.6305L633.84564,1065.5067C635.11285,1065.3428,635.9192,1064.9113,636.7756,1063.9177C637.9106,1062.5812,638.0976,1060.487,637.213,1058.9552C636.3972,1057.542,634.6301,1056.5647,633.12744,1056.6946 Z"/> </g> <g style="fill:rgb(25,162,255); fill-opacity:1.0; stroke-linejoin: miter"> <path d="M873.5965,995.0553C870.4292,995.32886,868.6189,998.3263,869.8024,1001.3202C870.0354,1001.9005,870.6372,1002.60864,871.3697,1003.1504L871.9592,1003.58203L870.84143,1003.29663C869.7808,1003.01245,869.693,1003.0178,869.2028,1003.2894C868.77356,1003.5482,868.684,1003.6682,868.6541,1004.0488C868.6094,1004.69885,868.90625,1005.0951,869.59595,1005.36597L870.1922,1005.6122L848.6319,1086.0774L827.06805,1166.5558L828.8803,1167.0414L830.69293,1167.5267L844.29193,1116.775C851.86115,1088.5256,857.9446,1066.0374,858.0118,1066.0552C858.06555,1066.0698,858.5681,1066.449,859.10645,1066.9099C862.4386,1069.6733,866.83813,1072.3201,870.9934,1074.0521C878.671,1077.2462,886.93604,1078.7847,899.4431,1079.3154C902.4719,1079.4504,904.1302,1079.4917,911.15424,1079.6471C918.4075,1079.8062,924.417,1080.1501,928.4483,1080.6261C933.1761,1081.1877,934.3792,1081.4238,939.391,1082.752C943.68744,1083.9036,944.45544,1084.1522,946.3571,1084.9498C951.3123,1087.0258,954.84674,1089.1959,959.6833,1093.1108C959.78973,1093.197,961.4307,1087.2329,967.7917,1063.4951L975.75653,1033.7688L975.12787,1033.2692C968.441,1027.8798,962.42487,1024.9299,953.993,1022.886C946.3163,1021.03076,940.73785,1020.52893,923.72034,1020.1277C907.4446,1019.7529,900.9935,1019.0171,892.78656,1016.6168C885.5794,1014.5132,879.8374,1011.5065,874.67426,1007.14404C874.12256,1006.6798,874.0831,1006.6116,874.4053,1006.698C875.65393,1007.0326,876.6037,1005.9054,875.88495,1004.9359C875.6604,1004.6454,875.4065,1004.52,874.52026,1004.2822L873.43256,1003.9911L874.315,1003.86755C875.5818,1003.70337,876.38824,1003.27185,877.2445,1002.2782C878.38,1000.9419,878.56665,998.8474,877.6819,997.31555C876.8664,995.9026,875.09894,994.9253,873.5965,995.0553 Z"/> </g> <g style="fill:rgb(255,255,255); fill-opacity:1.0; stroke-linejoin: miter"> <path d="M654.53723,1093.6555L654.53723,1093.6556L681.7657,1099.3053C682.3997,1099.437,682.80707,1100.0577,682.67554,1100.6914L682.67554,1100.6918L677.02576,1127.9196C676.8941,1128.5537,676.2735,1128.961,675.6394,1128.8296L675.6394,1128.8297L648.4111,1123.1796C647.77716,1123.0482,647.3697,1122.4275,647.50116,1121.7935L647.50116,1121.7936L653.15125,1094.5656C653.2828,1093.9313,653.9033,1093.524,654.53723,1093.6555L654.53723,1093.6556 M654.06085,1095.9517L655.4472,1095.0419L649.7972,1122.2698L648.88745,1120.8837L676.1159,1126.5333L674.7297,1127.4434L680.3795,1100.2151L681.28937,1101.6013L654.06085,1095.9517 Z M654.53723,1093.6555L654.53723,1093.6556L681.7657,1099.3053C682.3997,1099.437,682.80707,1100.0577,682.67554,1100.6914L682.67554,1100.6918L677.02576,1127.9196C676.8941,1128.5537,676.2735,1128.961,675.6394,1128.8296L675.6394,1128.8297L648.4111,1123.1796C647.77716,1123.0482,647.3697,1122.4275,647.50116,1121.7935L647.50116,1121.7936L653.15125,1094.5656C653.2828,1093.9313,653.9033,1093.524,654.53723,1093.6555L654.53723,1093.6556 M654.06085,1095.9517L655.4472,1095.0419L649.7972,1122.2698L648.88745,1120.8837L676.1159,1126.5333L674.7297,1127.4434L680.3795,1100.2151L681.28937,1101.6013L654.06085,1095.9517 Z M654.53723,1093.6555L654.53723,1093.6556L681.7657,1099.3053C682.3997,1099.437,682.80707,1100.0577,682.67554,1100.6914L682.67554,1100.6918L677.02576,1127.9196C676.8941,1128.5537,676.2735,1128.961,675.6394,1128.8296L675.6394,1128.8297L648.4111,1123.1796C647.77716,1123.0482,647.3697,1122.4275,647.50116,1121.7935L647.50116,1121.7936L653.15125,1094.5656C653.2828,1093.9313,653.9033,1093.524,654.53723,1093.6555L654.53723,1093.6556 M654.06085,1095.9517L655.4472,1095.0419L649.7972,1122.2698L648.88745,1120.8837L676.1159,1126.5333L674.7297,1127.4434L680.3795,1100.2151L681.28937,1101.6013L654.06085,1095.9517 Z M654.53723,1093.6555L654.53723,1093.6556L681.7657,1099.3053C682.3997,1099.437,682.80707,1100.0577,682.67554,1100.6914L682.67554,1100.6918L677.02576,1127.9196C676.8941,1128.5537,676.2735,1128.961,675.6394,1128.8296L675.6394,1128.8297L648.4111,1123.1796C647.77716,1123.0482,647.3697,1122.4275,647.50116,1121.7935L647.50116,1121.7936L653.15125,1094.5656C653.2828,1093.9313,653.9033,1093.524,654.53723,1093.6555L654.53723,1093.6556 M654.06085,1095.9517L655.4472,1095.0419L649.7972,1122.2698L648.88745,1120.8837L676.1159,1126.5333L674.7297,1127.4434L680.3795,1100.2151L681.28937,1101.6013L654.06085,1095.9517 Z"/> </g> <g style="fill:rgb(255,255,255); fill-opacity:1.0; stroke-linejoin: miter"> <path d="M673.607,1113.0104L673.60675,1113.0104C672.63074,1117.7153,668.0249,1120.738,663.31995,1119.7618L663.31995,1119.762C658.6146,1118.7852,655.5919,1114.1794,656.5681,1109.4745L656.5681,1109.4746C657.5443,1104.7697,662.14996,1101.7468,666.85547,1102.723L666.8553,1102.7231C671.5604,1103.6995,674.5833,1108.305,673.607,1113.0104L673.60675,1113.0104 M671.31104,1112.5338L671.31104,1112.5339C672.0241,1109.0969,669.8161,1105.7318,666.3789,1105.0189L666.3788,1105.019C662.9417,1104.3057,659.57745,1106.514,658.8642,1109.9509L658.8642,1109.951C658.1508,1113.388,660.3591,1116.7526,663.7961,1117.4658L663.7961,1117.4662C667.2333,1118.1787,670.59784,1115.9708,671.31104,1112.5338 Z"/> </g> <g style="fill:rgb(255,255,255); fill-opacity:1.0; stroke-linejoin: miter"> <path d="M676.8799,1104.9773C676.6881,1105.901,675.7835,1106.4946,674.8596,1106.3033C673.93567,1106.1115,673.34204,1105.2073,673.5339,1104.283C673.72546,1103.3591,674.6299,1102.7655,675.554,1102.9569C676.47784,1103.1487,677.0716,1104.0532,676.8799,1104.9773 Z"/> </g> <g style="fill:rgb(255,0,26); fill-opacity:1.0; stroke-linejoin: miter"> <path d="M752.6688,1024.3341C749.50165,1024.6077,747.6911,1027.6052,748.8747,1030.5992C749.1077,1031.1797,749.70953,1031.8876,750.44214,1032.4293L751.0317,1032.861L749.91376,1032.5754C748.8531,1032.2913,748.7653,1032.2968,748.27496,1032.568C747.846,1032.8275,747.75635,1032.947,747.72626,1033.3278C747.6816,1033.9778,747.9784,1034.374,748.6684,1034.6451L749.2645,1034.8911L727.70386,1115.3558L706.1401,1195.8341L707.9525,1196.3201L709.76526,1196.8055L723.36414,1146.0536C730.9335,1117.8043,737.0166,1095.3159,737.0838,1095.334C737.1374,1095.3483,737.64026,1095.7275,738.17865,1096.1885C741.5106,1098.952,745.91034,1101.5989,750.06555,1103.3309C757.743,1106.5251,766.00836,1108.0636,778.51544,1108.5942C781.5441,1108.7294,783.20264,1108.7706,790.22656,1108.9259C797.47974,1109.0851,803.4891,1109.4291,807.5206,1109.905C812.2484,1110.4666,813.45166,1110.7028,818.4633,1112.0309C822.7595,1113.1824,823.5277,1113.4312,825.42914,1114.2288C830.3845,1116.3048,833.9189,1118.4749,838.75555,1122.3898C838.8619,1122.476,840.5031,1116.5118,846.8637,1092.774L854.8286,1063.0477L854.1999,1062.5483C847.5132,1057.1592,841.4973,1054.2084,833.06525,1052.1649C825.38855,1050.3094,819.8099,1049.8077,802.793,1049.4066C786.5169,1049.0317,780.0656,1048.296,771.85876,1045.8955C764.6517,1043.792,758.9097,1040.7853,753.7465,1036.423C753.19476,1035.9585,753.15546,1035.8905,753.4776,1035.9769C754.72626,1036.3114,755.676,1035.1847,754.957,1034.2148C754.73285,1033.9244,754.47864,1033.799,753.5926,1033.5612L752.5049,1033.2698L753.38684,1033.1465C754.6541,1032.9823,755.4607,1032.5508,756.31683,1031.5571C757.45197,1030.221,757.639,1028.1265,756.7542,1026.5945C755.9386,1025.1815,754.17126,1024.2042,752.6688,1024.3341 Z"/> </g> <g style="fill:rgb(255,255,255); fill-opacity:1.0; stroke-linejoin: miter"> <path d="M562.8836,1136.5902C564.53827,1136.1403,565.81116,1135.237,566.70386,1133.8761C565.1273,1134.2,563.623,1134.2982,562.18524,1134.1747C561.3496,1132.5049,559.9998,1131.3855,558.14777,1130.843C556.33734,1130.3126,554.6219,1130.4998,553.01196,1131.3701C551.4062,1132.2511,550.3368,1133.579,549.81946,1135.3444C549.6621,1135.8807,549.5895,1136.3796,549.6059,1136.8256C544.3201,1135.0787,540.54974,1131.569,538.31683,1126.2856C537.42096,1127.1556,536.81464,1128.1315,536.4927,1129.2302C535.8309,1131.4886,536.25964,1133.5576,537.777,1135.4291C536.719,1135.019,535.84326,1134.4646,535.16077,1133.7765C534.68823,1135.389,534.76733,1136.8749,535.3695,1138.3386C535.9788,1139.7911,536.98315,1140.8977,538.38403,1141.655C537.80194,1141.6355,537.21155,1141.5342,536.62476,1141.3623C536.08344,1141.2034,535.71295,1141.0458,535.5143,1140.8804C535.5286,1142.311,535.9698,1143.5978,536.8189,1144.7325C537.6639,1145.8696,538.7852,1146.6677,540.1765,1147.1166C537.3329,1148.2532,534.4263,1148.3757,531.4357,1147.4995C530.70306,1147.2849,530.1872,1147.1223,529.88934,1146.9749C532.2745,1149.7506,535.27515,1151.6609,538.903,1152.7238C542.61597,1153.8118,546.17206,1153.8324,549.57874,1152.7872C552.9823,1151.7529,555.7658,1150.0615,557.9165,1147.7402C560.0727,1145.4242,561.57416,1142.7957,562.43884,1139.845L562.6769,1139.0326C564.2825,1138.429,565.67285,1137.6262,566.8476,1136.6342C565.51843,1136.7968,564.1967,1136.7847,562.8836,1136.5902 Z"/> </g> <g style="fill:rgb(242,242,242); fill-opacity:1.0; stroke-linejoin: miter"> <path d="M548.77106,1223.3013L589.03204,1223.3015L629.2927,1223.3018Q629.2927,1244.9269,629.2927,1266.552Q589.0319,1266.5522,548.77106,1266.5526Q548.77106,1244.9269,548.77106,1223.3013"/> </g> <g style="fill:rgb(242,242,242); fill-opacity:1.0; stroke-linejoin: miter"> <path d="M666.5963,1196.1257L706.8571,1196.1257L747.118,1196.1261Q747.118,1231.3392,747.118,1266.5522Q706.8571,1266.5522,666.5963,1266.5526Q666.5963,1231.3391,666.5963,1196.1257"/> </g> <g style="fill:rgb(242,242,242); fill-opacity:1.0; stroke-linejoin: miter"> <path d="M779.6728,1164.209L819.9338,1164.2092L860.1943,1164.2096Q860.1943,1215.3807,860.1943,1266.5526Q819.9338,1266.5526,779.6728,1266.5529Q779.6728,1215.3807,779.6728,1164.209"/> </g> <g style="fill:rgb(242,242,242); fill-opacity:1.0; stroke-linejoin: miter"> <path d="M442.31757,1245.7275L482.57825,1245.7275L522.83905,1245.728Q522.83905,1255.501,522.83905,1265.2737Q482.57825,1265.2739,442.31757,1265.274Q442.31757,1255.501,442.31757,1245.7275"/> </g> <g style="fill:rgb(255,255,255); fill-opacity:1.0; stroke-linejoin: miter"> <path d="M907.44507,1067.3656L911.137,1049.0968L916.54114,1050.1886L918.5294,1044.0372L912.4092,1042.8005L913.0551,1039.6514C913.3871,1038.0094,913.73193,1037.1637,916.25916,1037.6743L919.63776,1038.3569L920.9099,1032.0605L915.5052,1030.9681C909.0131,1029.6561,906.1108,1032.2485,905.07275,1037.3846L904.30914,1041.1646L900.26227,1040.3469L898.9899,1046.6426L903.0368,1047.4602L899.3451,1065.729L907.44507,1067.3656 Z"/> </g> <g style="fill:rgb(255,255,255); fill-opacity:1.0; stroke-linejoin: miter"> <path d="M788.23517,1069.7499L795.8714,1077.3959L785.4319,1080.1862L788.23517,1069.7499 Z M798.749,1066.8928C796.71686,1066.2852,794.6652,1065.7339,792.61786,1065.185C788.5377,1064.0868,784.4383,1062.9879,780.2671,1062.3523C778.50635,1062.0837,776.7418,1062.9832,775.8756,1064.6133C774.6429,1066.9341,773.91077,1069.6317,773.2266,1072.1787C772.5426,1074.7253,771.8174,1077.4249,771.72156,1080.0511C771.65436,1081.8956,772.73035,1083.5577,774.3888,1084.2079C776.3462,1084.9755,778.3461,1085.6349,780.36487,1086.2384C782.3975,1086.8457,784.4491,1087.3966,786.4965,1087.9457C790.57697,1089.0438,794.6761,1090.1427,798.8472,1090.7777C800.608,1091.0461,802.3728,1090.1469,803.23883,1088.5175C804.4719,1086.1962,805.2003,1083.4979,805.88434,1080.9513C806.56824,1078.4048,807.29694,1075.706,807.39276,1073.0796C807.45996,1071.2351,806.3837,1069.5725,804.7251,1068.9226C802.7677,1068.1549,800.76794,1067.496,798.749,1066.8928 Z"/> </g> <g style="fill:rgb(255,0,0); fill-opacity:1.0; stroke-linejoin: miter"> <path d="M788.26,1069.658C788.2442,1069.6536,788.227,1069.6536,788.21075,1069.658C788.17773,1069.6665,788.15216,1069.6924,788.1431,1069.7255L785.33966,1080.1617C785.33344,1080.186,785.3368,1080.212,785.3492,1080.2339L785.34875,1080.234C785.361,1080.2552,785.3813,1080.2719,785.40686,1080.2787C785.424,1080.2832,785.4409,1080.2828,785.45685,1080.2786L785.4561,1080.2787L795.8958,1077.4878C795.92883,1077.4792,795.9544,1077.4535,795.9633,1077.4209C795.97205,1077.3878,795.9627,1077.3528,795.9387,1077.3286L788.3025,1069.6826C788.29065,1069.6704,788.27594,1069.662,788.26,1069.658 Z"/> </g> <g style="fill:rgb(201,214,222); fill-opacity:1.0; stroke-linejoin: miter"> <path d="M777.98615,1163.7695L785.1074,1163.7695L792.2284,1163.7699Q792.2284,1216.1138,792.2284,1268.4579Q785.1074,1268.4584,777.98615,1268.4585Q777.98615,1216.1138,777.98615,1163.7695"/> </g> <g style="fill:rgb(201,214,222); fill-opacity:1.0; stroke-linejoin: miter"> <path d="M664.8789,1195.9429L672.00006,1195.9434L679.12115,1195.9435Q679.12115,1231.2686,679.12115,1266.5936Q672.00006,1266.5938,664.8789,1266.594Q664.8789,1231.2686,664.8789,1195.9429"/> </g> <g style="fill:rgb(201,214,222); fill-opacity:1.0; stroke-linejoin: miter"> <path d="M547.54095,1223.146L554.6619,1223.1464L561.7832,1223.1464Q561.7832,1244.9673,561.7832,1266.7887Q554.6619,1266.7888,547.54095,1266.789Q547.54095,1244.9673,547.54095,1223.146"/> </g> <g style="fill:rgb(201,214,222); fill-opacity:1.0; stroke-linejoin: miter"> <path d="M440.83746,1245.3608L447.95862,1245.361L455.07977,1245.3612Q455.07977,1255.4645,455.07977,1265.5681Q447.95862,1265.5682,440.83746,1265.5684Q440.83746,1255.4645,440.83746,1245.3608"/> </g> <g style="fill:rgb(242,242,242); fill-opacity:1.0; stroke-linejoin: miter"> <path d="M264.75323,1025.0774C264.26273,1025.1692,263.61896,1025.5984,263.31247,1026.0276C262.9752,1026.4877,262.14752,1029.6449,261.2278,1034.1514C260.36948,1038.1979,259.6031,1041.7844,259.51117,1042.1221C259.44983,1042.459,258.7448,1045.6163,257.94775,1049.1727C257.18134,1052.6976,256.2617,1056.7753,255.95508,1058.2158C255.61792,1059.6566,254.94345,1062.8141,254.45297,1065.2666C253.96252,1067.7191,253.16547,1071.4896,252.67493,1073.697C252.18448,1075.8734,251.60205,1078.5405,251.38748,1079.5522C251.17285,1080.5944,250.68234,1081.8207,250.31451,1082.3112L249.60944,1083.2001L223.79755,1083.3534C198.6907,1083.5065,197.98563,1083.5372,197.55646,1084.0892C197.18863,1084.6104,197.12735,1087.4612,197.12735,1101.3481C197.12735,1117.5953,197.12735,1117.9939,197.74042,1118.607C198.35349,1119.2203,198.75198,1119.2203,219.75107,1119.2203C240.87268,1119.2203,241.17923,1119.2203,241.823,1119.8331C242.68137,1120.6302,242.68137,1120.7529,241.54709,1125.9949C241.02597,1128.4166,240.29022,1132.0034,239.86102,1133.9347C238.45087,1140.8323,235.96774,1152.481,234.55759,1158.9187C232.22775,1169.5562,232.13577,1169.8627,231.49207,1170.5371L230.81766,1171.1809L205.28162,1171.3342C184.1907,1171.4568,179.6537,1171.549,179.22447,1171.9166C178.76468,1172.2847,178.73396,1173.8174,178.79532,1189.3596L178.88733,1206.4039L179.6537,1206.8025C180.23615,1207.109,184.98776,1207.201,200.86728,1207.201C213.49728,1207.201,221.62103,1207.3236,222.11154,1207.5076C223.307,1207.9675,223.52164,1208.9791,223.03113,1211.5542C222.4487,1214.5278,221.06918,1221.088,219.50577,1228.2C218.37149,1233.442,217.32913,1238.3163,214.63156,1251.498C214.14105,1253.8586,213.31339,1257.8131,212.7922,1260.3269C212.27109,1262.8099,211.9032,1265.1703,212.02579,1265.5996C212.1485,1266.1514,212.51633,1266.4274,213.34406,1266.6725C214.01846,1266.8564,220.88528,1266.9791,231.40009,1266.9791C250.22253,1266.9791,250.13055,1266.9791,250.71307,1265.0785C250.89697,1264.5267,251.4794,1261.9823,252.00058,1259.4686C252.5217,1256.924,253.34943,1253.0004,253.83981,1250.7317C255.03549,1245.3976,256.93604,1236.2931,258.2543,1229.8861C262.76056,1207.9674,262.72995,1208.1514,264.44662,1207.5076C264.9064,1207.3235,274.10303,1207.201,287.53018,1207.201C309.66342,1207.201,309.878,1207.201,310.6751,1207.8447C311.62543,1208.6112,311.6561,1208.9791,310.82837,1212.719C310.49115,1214.313,309.51016,1218.942,308.6825,1222.9885C306.26065,1234.6376,305.12643,1240.033,303.77765,1246.2866C303.1032,1249.4747,301.99966,1254.7169,301.3252,1257.9358C300.65082,1261.1238,300.03766,1264.0974,299.94568,1264.5267C299.8231,1265.0479,299.9764,1265.569,300.37488,1266.0594L300.98804,1266.8258L318.1856,1266.9176C335.93524,1267.0096,337.52933,1266.9176,338.11176,1265.7836C338.5409,1265.0172,340.93204,1254.3795,343.04727,1243.8342C343.93634,1239.2972,344.7946,1235.2202,347.339,1223.4484C348.044,1220.1682,348.9944,1215.57,349.4849,1213.271C350.46588,1208.5497,350.74182,1207.906,351.81467,1207.5076C352.2745,1207.3235,362.81998,1207.201,378.48495,1207.201L404.3888,1207.201L405.12454,1206.4346L405.89093,1205.699L405.89093,1189.3289C405.89093,1173.6333,405.86035,1172.8977,405.3085,1172.2233L404.72598,1171.4873L382.4395,1171.3342C360.8274,1171.1809,360.153,1171.1503,359.72382,1170.5983C359.2333,1169.8933,359.17197,1168.238,359.60117,1166.7358C359.78516,1166.1533,360.27554,1164.0076,360.67413,1161.9843C361.10327,1159.961,361.86966,1156.4357,362.36014,1154.1671C363.7703,1147.76,365.3951,1140.2191,366.03885,1137.0004C366.7746,1133.2909,368.30743,1126.1788,368.98178,1123.2052C369.34964,1121.5499,369.74826,1120.6609,370.36136,1120.0784L371.18893,1119.2203L397.24622,1119.2203C422.44495,1119.2203,423.33395,1119.1896,424.0083,1118.6377L424.7441,1118.0552L424.7441,1101.2869L424.7441,1084.5182L424.0083,1083.9357C423.3339,1083.384,422.50623,1083.3534,401.32327,1083.3534C376.55368,1083.3534,377.99445,1083.4758,377.99445,1081.1155C377.99445,1080.4104,378.1478,1079.3374,378.30112,1078.7242C378.48495,1078.1112,378.88348,1076.3331,379.25137,1074.7393C380.69214,1068.0563,381.42795,1064.6536,382.0103,1061.8945C382.31693,1060.3003,382.8687,1057.8175,383.17532,1056.3766C383.51245,1054.9357,384.18695,1051.8396,384.67734,1049.4791C385.19852,1047.1184,385.96494,1043.7465,386.39407,1041.9685C387.19107,1038.535,388.9385,1030.2583,389.36765,1027.7444C389.70486,1025.7823,389.36765,1025.1997,387.71225,1024.9548C387.00723,1024.8629,378.7302,1024.8014,369.34964,1024.8629C352.73438,1024.9548,352.24384,1024.9855,351.69214,1025.5679C351.10956,1026.1503,350.18997,1029.5837,348.90247,1035.8375C348.5652,1037.4314,347.9521,1040.4052,347.49222,1042.4285C347.0631,1044.4515,346.4806,1047.1492,346.23544,1048.406C345.77557,1050.6439,345.19305,1053.3721,343.96686,1058.8292C341.91293,1067.9032,339.8284,1077.4061,339.36856,1079.7665C339.00076,1081.5444,338.66348,1082.2496,337.7744,1082.8629C337.16138,1083.2919,334.40244,1083.3534,314.38443,1083.3534L291.6687,1083.3534L290.96362,1082.6788C290.31985,1082.0964,290.2586,1081.8207,290.41183,1080.3185C290.5038,1079.3682,290.8411,1077.4369,291.17816,1075.9961C291.51544,1074.5552,292.1592,1071.735,292.58835,1069.7117C293.0482,1067.6885,293.69196,1064.8682,293.99857,1063.4272C294.33572,1061.9865,295.07147,1058.461,295.68457,1055.6101C297.0641,1049.0804,300.19098,1034.6725,301.26385,1030.0742C302.24484,1025.813,302.09158,1025.292,299.94568,1024.9855C298.1063,1024.7402,265.94882,1024.8014,264.75323,1025.0774 Z M329.8654,1119.8331C330.87708,1120.8448,330.969,1120.2009,327.0757,1138.0732C325.20587,1146.6261,324.31674,1150.703,323.7343,1153.5538C320.79138,1167.9622,320.36227,1169.7402,319.4119,1170.5983C318.7988,1171.1503,317.97107,1171.1809,296.14444,1171.2728C281.85898,1171.3037,273.24478,1171.2421,272.72354,1171.0582C271.2215,1170.4758,271.25217,1170.1998,273.5819,1159.0719C274.99216,1152.3893,276.24908,1146.4115,277.4446,1140.9856C279.1306,1133.3829,280.20364,1128.4166,280.93933,1124.7074C281.70572,1120.9366,282.0736,1120.0477,283.1159,1119.5573C283.51437,1119.3733,292.0673,1119.2509,306.506,1119.2509C328.85373,1119.2203,329.25235,1119.2203,329.8654,1119.8331 Z"/> </g> <g style="fill:rgb(0,0,0); fill-opacity:1.0; stroke-linejoin: miter"> <path d="M388.6851,968.5055Q384.5747,967.3479,380.34744,968.7715Q376.4768,970.1338,374.626,973.44556Q372.538,977.0725,372.96164,985.74036L377.0894,989.4935L395.83844,982.0912Q397.329,977.5117,395.41714,974.21326Q392.97263,969.81665,388.6915,968.5077 Z"/> </g> <g style="fill:rgb(0,0,0); fill-opacity:1.0; stroke-linejoin: miter"> <path d="M444.52277,1135.8925L442.33136,1144.0232Q440.0091,1146.3694,439.7522,1148.046Q439.34875,1150.6534,441.78967,1153.7277Q443.65344,1155.9442,445.8451,1156.526Q446.54742,1156.7197,447.60028,1156.7902Q453.7356,1156.6686,454.65717,1157.0107Q455.29706,1156.9613,462.0373,1159.2825Q463.24133,1159.6328,464.3683,1159.8175Q469.20966,1160.6449,473.7923,1156.696Q478.15936,1152.4825,475.75836,1149.1392Q475.01105,1148.2607,473.9395,1147.8607Q473.31848,1147.632,472.77948,1147.5188Q469.59955,1146.9728,468.96167,1146.7843Q467.50873,1146.3568,466.6798,1145.6989Q464.4723,1143.9819,462.95166,1139.0558L444.59143,1135.9045 Z"/> </g> <g style="fill:rgb(0,0,0); fill-opacity:1.0; stroke-linejoin: miter"> <path d="M462.75555,1136.8641Q462.5028,1137.2501,462.7555,1136.8668 M462.6194,1137.0807L458.81042,1143.0632Q457.11584,1142.1151,456.77814,1142.7942Q456.3667,1143.2821,456.96655,1145.953L458.79718,1143.084L458.8327,1143.0992Q459.802,1143.68,461.58258,1145.0996Q469.58618,1151.7535,469.9381,1151.9408Q471.89606,1153.4482,473.08936,1153.9977Q474.98083,1154.9349,476.18304,1153.7241Q479.56262,1149.9084,480.38037,1148.7347Q481.60138,1147.0742,481.84314,1145.9976Q482.34326,1144.1969,479.5517,1142.9402Q478.34686,1142.3702,475.75836,1141.57Q474.7779,1141.2374,466.8277,1138.9875Q465.3739,1138.5609,464.59418,1138.2915Q462.42297,1137.5541,462.61426,1137.1029 Z"/> </g> <g style="fill:rgb(255,196,173); fill-opacity:1.0; stroke-linejoin: miter"> <path d="M416.81625,1036.3141L406.21075,1040.118Q411.29346,1055.67,414.3659,1059.4193Q417.10904,1063.1733,420.35138,1061.6616Q423.92697,1059.6724,424.66,1054.4071Q425.47003,1047.6266,416.83572,1036.3396 Z"/> </g> <g style="fill:rgb(60,63,60); fill-opacity:1.0; stroke-linejoin: miter"> <path d="M370.12582,1003.6145L369.4698,1006.8314L355.00882,1015.5681Q349.89044,1027.9043,350.4875,1034.2545Q350.55508,1037.1235,351.50546,1042.4291L370.09973,1040.7134Q367.39377,1061.995,368.09808,1068.6791Q368.61252,1077.659,372.95496,1084.9545L414.71613,1058.8119L409.8552,1039.8003L418.5927,1037.3125Q414.86594,1024.8317,409.40723,1015.89795L393.35443,1008.6986L392.79974,1004.8517L370.2403,1003.62085 Z"/> </g> <g style="fill:rgb(216,152,50); fill-opacity:1.0; stroke-linejoin: miter"> <path d="M447.49194,1092.4706L451.03418,1117.6492L438.89853,1092.805L447.3181,1092.4805 M405.9991,1059.1456Q391.00018,1059.6066,381.88562,1067.4117Q370.63718,1076.8319,373.2192,1086.2622Q388.34622,1088.5043,393.2207,1090.1355Q397.2102,1090.6376,412.16495,1096.8671Q414.13342,1097.4829,417.82816,1097.6396Q420.09564,1105.1384,422.00864,1108.1626Q436.34497,1125.7748,437.4873,1128.8607Q439.10135,1131.3833,442.45667,1141.5135L467.11633,1139.0854Q469.84082,1088.0208,470.1471,1084.4545Q470.4853,1080.3998,468.90912,1076.6843Q461.383,1060.711,406.19833,1059.14 Z"/> </g> <g style="fill:rgb(255,196,173); fill-opacity:1.0; stroke-linejoin: miter"> <path d="M370.91437,1038.2238L352.23672,1041.6455Q353.63617,1049.5089,355.58563,1054.2817Q357.26746,1058.5846,361.8654,1065.1525L374.547,1067.5833Q377.3356,1068.101,377.62384,1068.002Q380.09198,1067.5887,381.84668,1067.4397L396.4651,1066.3608Q400.7692,1065.9895,403.1405,1065.6106Q408.44464,1064.758,408.3744,1063.177Q411.76163,1066.311,414.63095,1065.9764Q416.92786,1065.6597,418.93283,1063.1655Q420.7106,1060.7643,420.23163,1058.659Q418.87613,1055.0458,411.35544,1054.5668Q409.0414,1054.4723,406.42587,1055.0562Q405.30487,1055.2291,399.3096,1057.2096Q398.02994,1057.5723,397.13242,1057.7098Q394.7459,1058.1147,391.92874,1057.7019Q387.83133,1057.2914,372.2948,1051.5233Q373.6798,1047.339,370.92682,1038.271 Z"/> </g> <g style="fill:rgb(0,0,0); fill-opacity:1.0; stroke-linejoin: miter"> <path d="M473.03644,1031.4434L433.39,1033.7991L416.2965,1065.0928L390.40814,1065.4525L390.50583,1068.2087L415.31415,1071.8286L454.49194,1068.2944L455.86768,1063.5679L473.0197,1031.4772 Z"/> </g> <g style="fill:rgb(255,196,173); fill-opacity:1.0; stroke-linejoin: miter"> <path d="M402.4407,1064.7994Q402.01443,1064.334,397.59167,1063.9207Q392.3149,1063.47,390.69897,1063.7322Q390.0239,1063.8323,389.65775,1064.1385L389.17508,1066.9019Q390.82355,1066.7919,394.498,1066.368Q397.53314,1066.0228,399.3464,1065.736Q402.70206,1065.2068,402.44473,1064.8053 Z"/> </g> <g style="fill:rgb(0,0,0); fill-opacity:1.0; stroke-linejoin: miter"> <path d="M442.61218,1141.091Q441.2973,1143.2611,440.81403,1144.4839Q440.29578,1145.7177,439.74432,1148.1095L443.92078,1146.6621L444.37012,1141.6532L442.62012,1141.0936 Z"/> </g> <g style="fill:rgb(255,196,173); fill-opacity:1.0; stroke-linejoin: miter"> <path d="M382.24338,975.93677Q379.34274,976.1007,378.6816,977.6271Q378.47293,978.1218,378.47775,978.87634Q378.4439,979.1538,378.72607,981.42737Q378.74966,981.9796,378.67413,982.18567Q378.5848,982.5166,378.30725,982.76465L377.142,983.5879Q376.8954,983.8678,376.83426,984.34045Q376.77008,984.8463,376.84344,985.4955L377.16406,987.58057L375.84976,987.8716Q376.079,986.22864,373.33096,984.3855Q372.13324,983.77136,371.84467,984.7921Q371.46304,986.9109,372.68686,990.6947Q373.0663,991.7455,373.51486,992.2726Q373.75143,992.6387,374.90594,993.3125Q375.0862,993.45874,375.22577,993.6832Q375.568,994.286,375.6855,995.4004Q376.13757,999.7743,374.03625,1004.1697L383.33337,1007.1869L388.9237,1015.4669L390.80365,1007.9264L391.13486,1002.53723Q393.989,999.4374,395.82324,992.40784Q395.9998,991.5161,396.0284,990.5902L395.99814,986.80286L396.16644,982.2218Q396.19287,980.32495,396.00058,979.20056Q395.70547,977.0664,394.16196,976.7633Q393.72272,976.6565,393.02127,976.66516Q389.65753,976.9584,389.0638,976.8391Q388.5608,976.8794,384.1232,976.0394Q383.08716,975.90015,382.24905,975.9359 Z"/> </g> <g style="fill:rgb(255,72,0); fill-opacity:0.21176471; stroke-linejoin: miter"> <path d="M378.38425,999.577Q378.876,1000.12085,378.3941,999.5868 M378.64996,999.87085L384.68732,1006.6793L390.4789,1002.8252Q387.2184,1004.63135,384.55396,1003.9734Q381.98038,1003.31445,378.66153,999.88196 Z"/> </g> <g style="fill:rgb(0,0,0); fill-opacity:0.11764706; stroke-linejoin: miter"> <path d="M369.0055,1023.11646L370.8716,1036.9426Q371.093,1034.9001,371.09622,1033.6702Q371.11057,1032.2848,370.9204,1030.8672Q370.54657,1028.0758,369.00696,1023.1206L369.0055,1023.11646 Z M410.87213,1026.3066L410.6452,1038.8977Q411.34875,1036.9149,411.59796,1035.7467Q411.89346,1034.4093,411.91348,1033.1477Q411.96094,1030.6097,410.87418,1026.3151L410.87213,1026.3066 Z M396.73013,1052.7311Q392.38568,1052.8763,386.01633,1053.9146L408.6666,1053.6382L408.68616,1053.6375Q404.62073,1053.0607,402.31418,1052.8813Q399.71188,1052.668,397.34064,1052.715Q397.04056,1052.721,396.73013,1052.7311 Z M455.5254,1078.9146L448.3365,1089.868Q451.55786,1087.1089,452.8269,1085.0953Q454.2804,1082.8892,455.52063,1078.93L455.5254,1078.9146 Z M418.54123,1087.1824L415.919,1092.4275Q416.99783,1092.0243,417.45795,1091.6868Q417.99295,1091.3146,418.2615,1090.7802Q418.7951,1089.7197,418.54196,1087.185L418.54123,1087.1824 Z M425.53564,1071.8202Q428.5073,1073.0375,429.96143,1074.1923Q431.74084,1075.541,432.99063,1077.6396Q435.26422,1081.172,438.06717,1093.308L436.40155,1076.2013L425.53677,1071.8208 Z M420.7165,1090.9535L417.70483,1095.7881L420.1797,1094.3943L420.71548,1090.9607L420.7165,1090.9535 Z M451.35632,1117.7625L457.10382,1140.4634Q457.14227,1135.871,456.93207,1133.4926Q456.71478,1130.7612,456.12598,1128.4338Q454.9638,1123.8436,451.36108,1117.7695L451.35632,1117.7625 Z M459.117,1140.1954Q466.753,1144.3644,470.38873,1146.6677Q473.6383,1148.7125,474.976,1150.2355L471.5274,1145.5697L471.51398,1145.5519L459.11835,1140.1954 Z M474.9815,1150.2415L476.07343,1151.7177Q475.50116,1150.818,474.9945,1150.2562L474.9815,1150.2415 Z"/> </g> </g> </svg>