<svg width="37" height="35" viewBox="0 0 37 35" fill="none" xmlns="http://www.w3.org/2000/svg">
<path d="M14 5.70427C14 3.5576 15.767 2.1875 18.359 2.1875H19.641C22.233 2.1875 24 3.5576 24 5.70427V8.02084H27V5.70427C27.0406 4.24048 26.2928 2.82337 24.9171 1.75696C23.5413 0.690551 21.6472 0.0597972 19.641 0H18.359C16.3528 0.0597972 14.4586 0.690551 13.0829 1.75696C11.7071 2.82337 10.9593 4.24048 11 5.70427V8.02084H14V5.70427Z" fill="#152C70"/>
<path d="M28.4583 8.02081C27.6529 8.02081 27 8.67373 27 9.47915V9.47915C27 10.2846 26.3471 10.9375 25.5417 10.9375H25.4583C24.6529 10.9375 24 10.2846 24 9.47915V9.47915C24 8.67373 23.3471 8.02081 22.5417 8.02081H15.4583C14.6529 8.02081 14 8.67373 14 9.47915V9.47915C14 10.2846 13.3471 10.9375 12.5417 10.9375H12.4583C11.6529 10.9375 11 10.2846 11 9.47915V9.47915C11 8.67373 10.3471 8.02081 9.54167 8.02081H5C2.23858 8.02081 0 10.2594 0 13.0208V30C0 32.7614 2.23858 35 5 35H32C34.7614 35 37 32.7614 37 30V13.0208C37 10.2594 34.7614 8.02081 32 8.02081H28.4583Z" fill="#4296FF"/>
</svg>
